<svg xmlns="http://www.w3.org/2000/svg" viewBox="0 0 1200 630" fill="none">
  <rect width="1200" height="630" fill="#0a0a0f"/>
  <rect x="0" y="0" width="1200" height="630" fill="url(#grad)" opacity="0.5"/>
  <defs>
    <linearGradient id="grad" x1="0" y1="0" x2="1200" y2="630">
      <stop offset="0%" stop-color="#6366f1" stop-opacity="0.15"/>
      <stop offset="100%" stop-color="#2dd4bf" stop-opacity="0.08"/>
    </linearGradient>
  </defs>
  <rect x="60" y="60" width="1080" height="510" rx="16" fill="#12121a" stroke="#ffffff" stroke-opacity="0.08"/>
  <rect x="80" y="250" width="56" height="56" rx="12" fill="#6366f1"/>
  <path d="M96 266h19.5c7.5 0 13.5 5.4 13.5 12.6 0 5.4-3.3 9.9-8.4 11.7L130 310h-11.4l-9.6-21H105v21h-9V266zm9 8.4v13.2h9.6c3.6 0 6-2.7 6-6.6s-2.4-6.6-6-6.6H105z" fill="white"/>
  <text x="152" y="293" font-family="Inter, system-ui, sans-serif" font-size="36" font-weight="700" fill="#f0f0f5">Repovera</text>
  <text x="80" y="370" font-family="Inter, system-ui, sans-serif" font-size="28" fill="#8888a0" font-weight="400">Global code infrastructure.</text>
  <text x="80" y="410" font-family="Inter, system-ui, sans-serif" font-size="28" fill="#8888a0" font-weight="400">Built on trust.</text>
  <text x="80" y="490" font-family="Inter, system-ui, sans-serif" font-size="16" fill="#5a5a72" font-weight="400">Privacy-first · Built from Germany · For the world</text>
</svg>
